<svg aria-hidden="true" style="position: absolute; width: 0; height: 0; overflow: hidden;" version="1.1" xmlns="http://www.w3.org/2000/svg" xmlns:xlink="http://www.w3.org/1999/xlink">
<defs>
<symbol id="sales" viewBox="0 0 32 32">
<path fill="none" stroke="#e92d2d" style="stroke: var(--color1, #e92d2d)" stroke-linejoin="miter" stroke-linecap="butt" stroke-miterlimit="4" stroke-width="1.6842" d="M10.887 11.91h2.045M19.068 20.090h2.045M21.113 10.887l-10.226 10.226M14.571 2.276l-2.309 2.309c-0.379 0.379-0.893 0.592-1.429 0.592h-3.637c-1.116 0-2.020 0.905-2.020 2.020v3.637c0 0.536-0.213 1.050-0.592 1.429l-2.309 2.309c-0.789 0.789-0.789 2.068 0 2.857l2.309 2.309c0.379 0.379 0.592 0.893 0.592 1.429v3.637c0 1.116 0.905 2.020 2.020 2.020h3.637c0.536 0 1.050 0.213 1.429 0.592l2.309 2.309c0.789 0.789 2.068 0.789 2.857 0l2.309-2.309c0.379-0.379 0.893-0.592 1.429-0.592h3.637c1.116 0 2.020-0.904 2.020-2.020v-3.637c0-0.536 0.213-1.050 0.592-1.429l2.309-2.309c0.789-0.789 0.789-2.068 0-2.857l-2.309-2.309c-0.379-0.379-0.592-0.893-0.592-1.429v-3.637c0-1.116-0.904-2.020-2.020-2.020h-3.637c-0.536 0-1.050-0.213-1.429-0.592l-2.309-2.309c-0.789-0.789-2.068-0.789-2.857 0z"></path>
</symbol>
<symbol id="profile" viewBox="0 0 20 28">
<path d="M20 21.859c0 2.281-1.5 4.141-3.328 4.141h-13.344c-1.828 0-3.328-1.859-3.328-4.141 0-4.109 1.016-8.859 5.109-8.859 1.266 1.234 2.984 2 4.891 2s3.625-0.766 4.891-2c4.094 0 5.109 4.75 5.109 8.859zM16 8c0 3.313-2.688 6-6 6s-6-2.688-6-6 2.688-6 6-6 6 2.688 6 6z"></path>
</symbol>
<symbol id="shopping-cart" viewBox="0 0 20 20">
<path d="M13 17c0 1.104 0.894 2 2 2 1.104 0 2-0.896 2-2 0-1.106-0.896-2-2-2-1.106 0-2 0.894-2 2zM3 17c0 1.104 0.895 2 2 2 1.103 0 2-0.896 2-2 0-1.106-0.897-2-2-2-1.105 0-2 0.894-2 2zM6.547 12.172l11.068-3.162c0.211-0.061 0.385-0.289 0.385-0.51v-5.5h-14v-1.6c0-0.22-0.181-0.4-0.399-0.4h-3.202c-0.219 0-0.399 0.18-0.399 0.4v1.6h2l1.91 8.957 0.090 0.943v1.649c0 0.219 0.18 0.4 0.4 0.4h13.2c0.22 0 0.4-0.182 0.4-0.4v-1.549h-11.248c-1.15 0-1.174-0.551-0.205-0.828z"></path>
</symbol>
<symbol id="heart" viewBox="0 0 20 20">
<path d="M17.19 4.156c-1.672-1.535-4.383-1.535-6.055 0l-1.135 1.041-1.136-1.041c-1.672-1.535-4.382-1.535-6.054 0-1.881 1.726-1.881 4.519 0 6.245l7.19 6.599 7.19-6.599c1.88-1.726 1.88-4.52 0-6.245zM16.124 9.375l-6.124 5.715-6.125-5.715c-0.617-0.567-0.856-1.307-0.856-2.094s0.138-1.433 0.756-1.999c0.545-0.501 1.278-0.777 2.063-0.777s1.517 0.476 2.062 0.978l2.1 1.825 2.099-1.826c0.546-0.502 1.278-0.978 2.063-0.978s1.518 0.276 2.063 0.777c0.618 0.566 0.755 1.212 0.755 1.999s-0.238 1.528-0.856 2.095z"></path>
</symbol>
<symbol id="contacts" viewBox="0 0 32 32">
<path d="M7.725 1.094c-0.95 0.262-1.85 1-2.256 1.856-0.306 0.644-0.406 1.169-0.406 2.219v0.881l-0.975 0.025-0.975 0.019-0.219 0.244c-0.2 0.219-0.219 0.263-0.188 0.525 0.025 0.219 0.075 0.331 0.225 0.463l0.194 0.175h1.937v4.687h-0.875c-0.994 0-1.244 0.069-1.4 0.369-0.125 0.238-0.125 0.463-0.006 0.694 0.169 0.325 0.362 0.375 1.375 0.375h0.906v4.688h-0.906c-1.013 0-1.206 0.050-1.375 0.375-0.119 0.231-0.119 0.456 0.006 0.694 0.156 0.3 0.406 0.369 1.4 0.369h0.875v4.688h-0.9c-0.5 0-0.975 0.025-1.063 0.063-0.2 0.075-0.413 0.406-0.413 0.644 0 0.1 0.050 0.262 0.106 0.363 0.181 0.306 0.406 0.369 1.387 0.369h0.881v0.919c0 1.575 0.244 2.269 1.056 3.087 0.513 0.519 0.987 0.794 1.65 0.981 0.356 0.1 1.056 0.106 9.294 0.106 7.275 0 8.969-0.012 9.25-0.087 1.294-0.319 2.319-1.319 2.656-2.6 0.081-0.325 0.094-1.75 0.094-12.313s-0.012-11.988-0.094-12.313c-0.319-1.2-1.188-2.131-2.363-2.5l-0.488-0.156-9.044 0.006c-7.363 0.006-9.1 0.019-9.35 0.087zM26.25 2.525c0.631 0.269 1.119 0.781 1.325 1.381 0.069 0.206 0.081 2.344 0.081 12.094 0 11.025-0.006 11.863-0.106 12.113-0.175 0.431-0.475 0.819-0.819 1.044-0.65 0.425-0.15 0.406-9.637 0.406-6.9 0-8.631-0.019-8.912-0.087-0.688-0.156-1.181-0.563-1.487-1.225-0.15-0.319-0.162-0.419-0.181-1.363l-0.025-1.012h0.888c0.694 0 0.938-0.025 1.1-0.1 0.425-0.206 0.531-0.75 0.219-1.1l-0.181-0.206-2.013-0.038v-4.681h0.906c1.013 0 1.206-0.050 1.375-0.375 0.188-0.356 0.063-0.794-0.281-0.969-0.137-0.069-0.4-0.094-1.094-0.094h-0.906v-4.688h0.925c0.806 0 0.944-0.012 1.125-0.125 0.319-0.2 0.412-0.581 0.225-0.944-0.156-0.3-0.406-0.369-1.4-0.369h-0.875v-4.688h1.95l0.213-0.213c0.231-0.231 0.281-0.513 0.137-0.813-0.144-0.331-0.313-0.381-1.35-0.4l-0.963-0.025 0.025-1.013c0.019-0.994 0.019-1.013 0.225-1.425 0.3-0.619 0.85-1.038 1.519-1.169 0.15-0.031 4.2-0.050 8.994-0.050 8.444 0.013 8.725 0.019 9 0.131z"></path>
<path d="M16.625 8.869c-1.713 0.231-2.994 1.7-3 3.425-0.006 2.213 2.15 3.906 4.281 3.363 0.631-0.162 1.144-0.45 1.587-0.9 0.712-0.713 1.031-1.5 1.031-2.506-0.006-0.994-0.356-1.775-1.106-2.481-0.744-0.694-1.8-1.031-2.794-0.9zM17.906 10.431c0.394 0.175 0.813 0.588 1.012 1 0.238 0.494 0.244 1.194 0.012 1.694-0.2 0.412-0.538 0.769-0.962 0.988-0.269 0.144-0.387 0.169-0.875 0.169-0.675 0-1.019-0.137-1.475-0.594-1.075-1.075-0.512-2.994 0.987-3.375 0.337-0.081 0.975-0.025 1.3 0.119z"></path>
<path d="M16.069 17.006c-0.469 0.087-0.887 0.244-1.475 0.544-0.456 0.238-0.675 0.4-1.162 0.887-0.838 0.825-1.294 1.663-1.519 2.762-0.131 0.637-0.131 1.413 0 1.6 0.231 0.337 0.081 0.325 5.15 0.325 4.219 0 4.719-0.012 4.913-0.1 0.337-0.163 0.425-0.387 0.381-1.031-0.156-2.456-1.863-4.481-4.181-4.956-0.519-0.106-1.637-0.125-2.106-0.031zM18.188 18.5c1.275 0.344 2.406 1.606 2.656 2.95l0.044 0.238h-7.625l0.088-0.394c0.156-0.669 0.5-1.269 1.025-1.8 0.488-0.488 0.813-0.706 1.419-0.931 0.619-0.231 1.681-0.262 2.394-0.063z"></path>
</symbol>
<symbol id="blog" viewBox="0 0 32 32">
<path d="M2.125 0.069c-1 0.194-1.869 1.081-2.063 2.119-0.087 0.456-0.087 27.169 0 27.625 0.2 1.063 1.063 1.925 2.119 2.125 0.462 0.087 27.175 0.087 27.637 0 1.056-0.2 1.919-1.063 2.119-2.125 0.088-0.456 0.088-27.169 0-27.631-0.2-1.056-1.063-1.919-2.125-2.119-0.419-0.081-27.281-0.075-27.688 0.006zM29.894 1.188c0.413 0.156 0.756 0.5 0.919 0.925 0.106 0.269 0.125 0.481 0.125 1.231v0.906h-29.875v-0.906c0-0.75 0.019-0.956 0.125-1.237 0.15-0.406 0.5-0.756 0.913-0.919 0.3-0.119 0.637-0.119 13.881-0.125 13.412 0 13.581 0 13.912 0.125zM30.938 17.438c0 11.913 0 12.131-0.125 12.45-0.163 0.425-0.506 0.769-0.919 0.925-0.331 0.125-0.506 0.125-13.894 0.125-13.344 0-13.569 0-13.887-0.125-0.425-0.163-0.769-0.506-0.925-0.919-0.125-0.331-0.125-0.5-0.125-12.456v-12.125h29.875v12.125z"></path>
<path d="M2.969 2.2c-0.319 0.181-0.381 0.581-0.125 0.831 0.131 0.138 0.206 0.156 0.625 0.156s0.494-0.019 0.625-0.156c0.263-0.256 0.194-0.656-0.138-0.831-0.175-0.094-0.825-0.094-0.987 0z"></path>
<path d="M5.612 2.225c-0.3 0.156-0.338 0.587-0.075 0.819 0.131 0.119 0.231 0.144 0.612 0.144 0.369 0 0.475-0.025 0.588-0.125 0.275-0.256 0.219-0.688-0.112-0.856-0.213-0.106-0.806-0.1-1.013 0.019z"></path>
<path d="M8.313 2.206c-0.344 0.175-0.4 0.587-0.113 0.856 0.113 0.1 0.219 0.125 0.588 0.125 0.381 0 0.481-0.025 0.613-0.144 0.269-0.237 0.225-0.663-0.088-0.825-0.219-0.112-0.787-0.119-1-0.013z"></path>
<path d="M3.919 6.438c-0.681 0.119-1.294 0.594-1.594 1.237l-0.169 0.356-0.019 4.050c-0.019 4.387-0.013 4.5 0.319 5.025 0.206 0.325 0.625 0.694 0.975 0.856 0.288 0.131 0.313 0.131 5.35 0.131h5.063l0.419-0.206c0.456-0.225 0.775-0.544 1-1.006l0.144-0.288v-8.625l-0.162-0.344c-0.219-0.456-0.556-0.787-1.056-1.025l-0.406-0.194-4.781-0.013c-2.631 0-4.912 0.019-5.081 0.044zM13.525 7.5c0.3 0.069 0.525 0.225 0.713 0.5l0.137 0.213-0.012 4.094-0.019 4.1-0.15 0.212c-0.081 0.113-0.262 0.262-0.406 0.325-0.244 0.113-0.506 0.119-5.006 0.119-5.325 0-4.981 0.031-5.369-0.456l-0.194-0.244-0.019-4c-0.019-3.963-0.013-4.006 0.119-4.275 0.15-0.319 0.381-0.5 0.719-0.581 0.319-0.075 9.169-0.081 9.488-0.006z"></path>
<path d="M6.781 8.694c-0.319 0.156-0.575 0.4-0.737 0.713-0.131 0.244-0.138 0.325-0.156 2.744-0.019 2.856-0.013 2.9 0.469 3.381s1.175 0.587 1.794 0.269c0.537-0.275 3.594-2.363 3.769-2.581 0.506-0.613 0.406-1.637-0.213-2.131-0.381-0.306-3.4-2.281-3.675-2.406-0.338-0.156-0.925-0.15-1.25 0.012zM9.231 10.694c0.887 0.588 1.688 1.144 1.787 1.231 0.206 0.2 0.219 0.45 0.031 0.656-0.244 0.262-3.487 2.356-3.656 2.356-0.081 0-0.219-0.069-0.3-0.156l-0.156-0.15v-2.338c0-3.287-0.125-3.2 2.294-1.6z"></path>
<path d="M17.762 8.706c-0.194 0.206-0.181 0.544 0.025 0.738l0.163 0.15 5.1 0.019c3.556 0.012 5.175 0 5.337-0.050 0.319-0.094 0.462-0.356 0.363-0.662-0.038-0.119-0.125-0.244-0.188-0.275-0.075-0.037-2.019-0.063-5.394-0.063h-5.275l-0.131 0.144z"></path>
<path d="M17.781 10.844c-0.275 0.269-0.181 0.7 0.181 0.844 0.231 0.088 2.212 0.081 2.469-0.006 0.269-0.094 0.413-0.375 0.325-0.631-0.125-0.344-0.175-0.356-1.556-0.363-1.262 0-1.269 0-1.419 0.156z"></path>
<path d="M22.031 10.844c-0.2 0.194-0.2 0.469-0.006 0.7l0.15 0.175 2.994 0.019c2.031 0.012 3.063 0 3.219-0.050 0.306-0.088 0.462-0.363 0.369-0.637-0.131-0.369-0.012-0.356-3.431-0.363h-3.144l-0.15 0.156z"></path>
<path d="M17.781 12.969c-0.169 0.169-0.206 0.494-0.075 0.662 0.181 0.238 0.275 0.244 3.356 0.244 3.169 0 3.294-0.012 3.4-0.281 0.094-0.244 0.038-0.519-0.125-0.65s-0.225-0.131-3.288-0.131h-3.119l-0.15 0.156z"></path>
<path d="M25.781 12.969c-0.288 0.281-0.15 0.781 0.238 0.881 0.081 0.019 0.669 0.025 1.313 0.012 1.106-0.019 1.175-0.025 1.306-0.156 0.188-0.194 0.188-0.525-0.012-0.738l-0.144-0.156h-1.275c-1.269 0-1.275 0-1.425 0.156z"></path>
<path d="M17.781 15.094c-0.156 0.15-0.2 0.406-0.119 0.625 0.106 0.269 0.225 0.281 3.462 0.281h3.069l0.15-0.156c0.106-0.1 0.156-0.219 0.156-0.375s-0.050-0.275-0.156-0.375l-0.15-0.156h-6.262l-0.15 0.156z"></path>
<path d="M25.781 15.094c-0.256 0.25-0.206 0.656 0.1 0.813 0.244 0.131 0.4 0.119 0.594-0.056 0.131-0.113 0.175-0.2 0.175-0.381 0-0.463-0.55-0.7-0.869-0.375z"></path>
<path d="M18.156 18.212c-0.169 0.044-0.4 0.125-0.506 0.181-0.294 0.156-0.725 0.606-0.9 0.956l-0.156 0.306v8.688l0.156 0.306c0.188 0.363 0.613 0.806 0.931 0.969 0.488 0.25 0.788 0.262 5.756 0.244l4.781-0.019 0.419-0.206c0.481-0.238 0.813-0.575 1.044-1.069l0.163-0.35v-8.438l-0.163-0.35c-0.231-0.494-0.563-0.831-1.044-1.069l-0.419-0.206-4.875-0.012c-3.731-0.006-4.95 0.006-5.188 0.069zM28.156 19.306c0.3 0.137 0.431 0.275 0.563 0.587 0.081 0.194 0.094 0.756 0.094 4.119 0 3.656-0.012 3.906-0.119 4.15-0.137 0.294-0.369 0.5-0.688 0.594-0.15 0.044-1.769 0.056-4.944 0.044l-4.719-0.019-0.219-0.137c-0.125-0.075-0.288-0.25-0.363-0.381l-0.137-0.25v-4.012c0-4.012 0-4.012 0.137-4.256 0.144-0.256 0.337-0.413 0.606-0.494 0.087-0.031 2.275-0.056 4.85-0.056 4.419-0.006 4.7 0 4.938 0.113z"></path>
<path d="M21.506 20.319c-0.581 0.113-1.069 0.613-1.194 1.212-0.044 0.219-0.063 1.125-0.050 2.669 0.019 2.294 0.019 2.337 0.163 2.625 0.163 0.331 0.494 0.644 0.819 0.781 0.344 0.144 0.925 0.125 1.256-0.044 0.438-0.225 3.575-2.344 3.762-2.538 0.244-0.262 0.381-0.631 0.381-1.025s-0.137-0.762-0.381-1.025c-0.181-0.188-3.325-2.313-3.738-2.525-0.313-0.156-0.669-0.206-1.019-0.131zM23.688 22.469c0.875 0.575 1.656 1.106 1.738 1.175 0.094 0.087 0.137 0.2 0.137 0.356s-0.044 0.269-0.137 0.356c-0.081 0.069-0.881 0.613-1.788 1.206-1.756 1.156-1.887 1.212-2.156 0.944-0.137-0.131-0.137-0.15-0.137-2.5 0-2.219 0.006-2.375 0.119-2.494 0.125-0.144 0.319-0.194 0.506-0.131 0.069 0.025 0.844 0.512 1.719 1.087z"></path>
<path d="M3.525 20.337c-0.25 0.113-0.369 0.387-0.275 0.631 0.138 0.356-0.15 0.337 5.55 0.344h5.269l0.15-0.156c0.275-0.269 0.181-0.7-0.181-0.844-0.113-0.038-1.881-0.063-5.244-0.063-4.1 0.006-5.112 0.019-5.269 0.087z"></path>
<path d="M3.531 22.462c-0.263 0.113-0.369 0.363-0.281 0.637 0.044 0.119 0.125 0.244 0.188 0.275 0.069 0.038 0.669 0.063 1.394 0.063 1.25 0 1.275 0 1.406-0.144 0.194-0.206 0.181-0.544-0.025-0.738-0.156-0.144-0.188-0.15-1.325-0.169-0.881-0.006-1.219 0.006-1.356 0.075z"></path>
<path d="M7.906 22.419c-0.394 0.1-0.55 0.613-0.263 0.881 0.144 0.137 0.15 0.137 3.3 0.137h3.162l0.131-0.144c0.194-0.206 0.181-0.544-0.025-0.738l-0.162-0.15-3.006-0.012c-1.656 0-3.069 0.006-3.138 0.025z"></path>
<path d="M3.425 24.625c-0.056 0.038-0.138 0.163-0.175 0.275-0.1 0.306 0.044 0.569 0.362 0.663 0.156 0.050 1.181 0.063 3.219 0.050l2.994-0.019 0.15-0.175c0.194-0.231 0.194-0.506-0.006-0.7l-0.15-0.156h-3.144c-1.931 0-3.181 0.025-3.25 0.063z"></path>
<path d="M11.425 24.625c-0.056 0.038-0.137 0.163-0.175 0.275-0.056 0.175-0.050 0.25 0.025 0.406 0.15 0.288 0.406 0.331 1.675 0.306 1.069-0.019 1.106-0.025 1.262-0.169 0.213-0.2 0.225-0.55 0.019-0.744-0.137-0.131-0.194-0.137-1.425-0.137-0.713 0-1.319 0.031-1.381 0.063z"></path>
<path d="M3.419 26.775c-0.337 0.262-0.231 0.788 0.194 0.913 0.156 0.050 1.188 0.063 3.219 0.050l2.994-0.019 0.15-0.175c0.194-0.231 0.194-0.506-0.006-0.7l-0.15-0.156h-3.144c-2.519 0.006-3.163 0.019-3.256 0.087z"></path>
<path d="M11.419 26.775c-0.313 0.238-0.256 0.731 0.106 0.881 0.537 0.225 0.975-0.413 0.569-0.813-0.169-0.175-0.494-0.206-0.675-0.069z"></path>
</symbol>
<symbol id="how-to-pay" viewBox="0 0 32 32">
<path d="M17.606 0.087c-0.125 0.044-0.319 0.15-0.425 0.231-0.1 0.081-2.006 2.819-4.231 6.088l-4.044 5.938-1.144 0.019-1.144 0.012 0.031-0.2c0.019-0.113 0.138-1.231 0.256-2.488s0.231-2.4 0.25-2.544c0.037-0.256 0.056-0.275 0.481-0.5s1.025-0.737 1.275-1.1l0.125-0.181 1.806 0.188c1.225 0.119 1.869 0.162 1.981 0.125 0.35-0.119 0.375-0.656 0.037-0.8-0.081-0.037-0.969-0.144-1.981-0.244-2.037-0.194-2.194-0.188-2.494 0.144-0.1 0.106-0.325 0.35-0.506 0.544-0.188 0.206-0.456 0.419-0.675 0.525-0.556 0.269-0.75 0.438-0.85 0.731-0.063 0.162-0.206 1.388-0.369 3.031l-0.269 2.769h-0.594l0.031-0.238c0.019-0.125 0.219-2.081 0.438-4.344 0.225-2.269 0.438-4.169 0.469-4.237 0.094-0.175 0.269-0.244 0.606-0.244 0.162 0 1.831 0.156 3.7 0.344 3.013 0.3 3.425 0.325 3.575 0.25 0.3-0.156 0.287-0.65-0.019-0.781-0.081-0.031-1.181-0.156-2.456-0.281-1.269-0.125-2.894-0.281-3.612-0.356-0.725-0.069-1.419-0.106-1.569-0.087-0.569 0.087-1.056 0.575-1.169 1.181-0.037 0.181-0.213 1.831-0.394 3.669l-0.325 3.344-0.788 0.037c-0.675 0.025-0.831 0.056-1.087 0.188-0.531 0.275-0.831 0.794-0.837 1.463-0.006 0.3-0.019 0.319-0.3 0.5-0.156 0.1-0.381 0.306-0.494 0.456-0.419 0.55-0.4 0.069-0.381 9.081l0.019 8.15 0.15 0.325c0.181 0.413 0.694 0.894 1.1 1.056 0.306 0.119 0.631 0.119 13.5 0.119h13.188l0.325-0.15c0.387-0.175 0.85-0.644 1.038-1.056 0.131-0.281 0.137-0.381 0.156-2.688l0.019-2.387h0.231c0.538 0 1.012-0.269 1.175-0.669 0.069-0.163 0.087-0.75 0.087-2.831 0-2.494-0.006-2.644-0.125-2.875-0.188-0.369-0.45-0.525-0.95-0.55l-0.425-0.025v-2.262c0-1.9-0.019-2.319-0.1-2.6-0.113-0.375-0.375-0.8-0.619-0.988-0.144-0.113-0.156-0.169-0.156-0.588 0-0.556-0.188-1-0.55-1.3-0.262-0.213-0.725-0.375-1.087-0.375h-0.244l0.731-1.069c0.406-0.594 0.769-1.2 0.819-1.363 0.15-0.5-0.012-1.094-0.4-1.45-0.094-0.088-0.919-0.669-1.831-1.288s-3.006-2.050-4.656-3.175c-1.65-1.125-3.081-2.087-3.181-2.138-0.256-0.131-0.831-0.163-1.119-0.056zM18.381 1.006c0.381 0.2 9.238 6.281 9.387 6.438 0.275 0.294 0.231 0.444-0.375 1.344-0.306 0.444-0.969 1.431-1.488 2.194l-0.938 1.387-0.363 0.006h-0.356l0.731-1.069c0.4-0.594 0.762-1.181 0.813-1.319 0.094-0.281 0.056-0.494-0.206-1.113-0.144-0.344-0.175-0.506-0.188-1.081-0.012-0.556-0.044-0.713-0.15-0.881-0.087-0.15-0.863-0.713-2.663-1.938-1.394-0.95-2.6-1.756-2.688-1.788-0.275-0.106-0.563-0.069-1.069 0.138-0.425 0.175-0.569 0.2-1.156 0.212-0.788 0.019-1.012 0.1-1.281 0.481-0.106 0.144-1.406 2.050-2.894 4.231s-2.738 4.006-2.775 4.050c-0.050 0.050-0.194 0.075-0.4 0.063l-0.313-0.019 3.806-5.594c2.094-3.075 3.869-5.644 3.937-5.706 0.15-0.119 0.438-0.137 0.625-0.038zM22.094 5.737l2.375 1.619 0.038 0.681c0.031 0.531 0.075 0.775 0.206 1.119 0.094 0.238 0.175 0.481 0.181 0.531 0.006 0.056-0.381 0.681-0.863 1.394l-0.875 1.287-0.781 0.006h-0.788l-0.069-0.419c-0.1-0.575-0.506-1.363-0.931-1.825-0.45-0.488-0.931-0.8-1.575-1.025-1.306-0.45-2.869-0.081-3.831 0.906-0.537 0.55-0.944 1.331-1.044 2.006l-0.044 0.325-1.144 0.019c-0.919 0.012-1.137 0-1.1-0.063 0.031-0.044 1.244-1.831 2.7-3.975l2.65-3.888h0.587c0.45 0 0.694-0.037 1.069-0.156 0.269-0.088 0.531-0.181 0.575-0.213 0.056-0.037 0.137-0.037 0.188-0.006 0.056 0.031 1.169 0.781 2.475 1.675zM18.531 9.906c0.506 0.137 0.925 0.375 1.306 0.756 0.394 0.394 0.631 0.813 0.75 1.325l0.087 0.387h-5.681l0.044-0.238c0.287-1.581 1.931-2.638 3.494-2.231zM4.287 11.756c-0.019 0.106-0.037 0.294-0.037 0.406v0.213h-1.625v-0.225c0-0.162 0.050-0.269 0.181-0.406 0.181-0.175 0.2-0.181 0.85-0.181h0.675l-0.044 0.194zM27.956 11.694c0.181 0.137 0.35 0.594 0.256 0.669-0.031 0.025-0.525 0.037-1.1 0.025l-1.044-0.019 0.262-0.4 0.262-0.406h0.6c0.512 0 0.625 0.019 0.762 0.131zM28.606 13.537c0.394 0.313 0.456 0.506 0.456 1.381v0.769h-27.625v-0.781c0-0.556 0.025-0.838 0.087-0.956 0.113-0.219 0.4-0.488 0.6-0.569 0.1-0.037 4.631-0.056 13.2-0.050l13.037 0.012 0.244 0.194zM29.063 17.688v1.063h-2.356c-1.887 0-2.444 0.019-2.762 0.094-1.094 0.262-2.031 1.1-2.444 2.188-0.175 0.469-0.238 1.425-0.125 1.913 0.281 1.212 1.206 2.2 2.438 2.594 0.294 0.094 0.681 0.113 2.8 0.137l2.45 0.025v2.113h-11.238c-11.188 0-11.244 0-11.356 0.125-0.144 0.163-0.144 0.462 0 0.625 0.112 0.125 0.169 0.125 11.356 0.125h11.238v0.794c0 0.712-0.019 0.825-0.144 1.050-0.081 0.137-0.25 0.306-0.387 0.387l-0.25 0.144h-13.019c-14.506 0-13.269 0.038-13.625-0.425-0.163-0.212-0.169-0.256-0.188-1.087l-0.025-0.863h1.319c1.237 0 1.325-0.006 1.444-0.125 0.069-0.069 0.125-0.206 0.125-0.313s-0.056-0.244-0.125-0.313c-0.119-0.119-0.206-0.125-1.438-0.125h-1.313v-11.188h27.625v1.063zM30.55 22.2l0.012 2.55h-3.044c-1.788 0-3.163-0.031-3.319-0.063-0.981-0.231-1.769-1.063-1.956-2.069-0.25-1.369 0.762-2.744 2.15-2.925 0.212-0.031 1.681-0.050 3.262-0.044l2.875 0.006 0.019 2.544z"></path>
<path d="M24.313 20.431c-0.788 0.244-1.375 1.113-1.294 1.913 0.1 0.994 0.85 1.681 1.819 1.681 1.613 0.006 2.431-1.825 1.381-3.075-0.087-0.106-0.331-0.281-0.544-0.381-0.319-0.163-0.456-0.194-0.794-0.188-0.225 0-0.481 0.025-0.569 0.050zM25.212 21.337c0.656 0.275 0.756 1.194 0.175 1.625-0.238 0.181-0.744 0.2-1 0.044-0.631-0.4-0.594-1.337 0.075-1.637 0.306-0.137 0.475-0.144 0.75-0.031z"></path>
</symbol>
<symbol id="guarantee" viewBox="0 0 32 32">
<path d="M3.906 0.075c-0.256 0.138-0.281 0.231-0.281 1.125v0.863h-0.813c-0.85 0-1.125 0.063-1.212 0.281-0.050 0.138-0.050 29.238 0 29.375 0.113 0.288-0.188 0.281 9.213 0.281h8.819l-0.019-0.512-0.019-0.519-17.031-0.031v-27.813h15.5v3.744l0.3 0.35 3.825 0.037v4.125l1.031-0.037v-4.844l-2.219-2.219-2.225-2.219h-14.15v-1h19.625v11.313h1.063l-0.012-6.037-0.019-6.037-0.35-0.3h-10.45c-7.444 0.006-10.488 0.025-10.575 0.075zM20.313 5.031l1.156 1.156h-2.344v-1.156c0-0.638 0.006-1.156 0.019-1.156 0.006 0 0.531 0.519 1.169 1.156z"></path>
<path d="M4.125 4.656v0.537l1.031-0.037 0.019-0.519 0.019-0.513h-1.069v0.531z"></path>
<path d="M6.188 4.656v0.537l1.031-0.037 0.019-0.519 0.019-0.513h-1.069v0.531z"></path>
<path d="M8.25 4.656v0.537l1.031-0.037 0.019-0.519 0.019-0.513h-1.069v0.531z"></path>
<path d="M10.313 4.656v0.531l6.719-0.031v-1l-6.719-0.031v0.531z"></path>
<path d="M3.625 8.781v0.531l13.406-0.031v-1l-13.406-0.031v0.531z"></path>
<path d="M3.625 10.844v0.531l13.406-0.031v-1l-13.406-0.031v0.531z"></path>
<path d="M3.625 12.906v0.531l13.406-0.031v-1l-13.406-0.031v0.531z"></path>
<path d="M22.594 12.425c-0.069 0.012-0.413 0.313-0.762 0.669-1.194 1.206-2.556 1.944-4.162 2.25-0.281 0.056-0.938 0.113-1.462 0.137-0.9 0.037-0.963 0.044-1.094 0.188l-0.144 0.156v4.569c0 4.825 0 4.806 0.294 5.731 0.363 1.137 1.194 2.231 2.206 2.919 0.675 0.456 5.113 2.956 5.244 2.956s4.569-2.5 5.25-2.956c1.069-0.719 1.931-1.938 2.3-3.262 0.137-0.494 0.144-0.544 0.163-5.238l0.019-4.731-0.15-0.144c-0.131-0.137-0.212-0.15-1.1-0.188-2.375-0.106-4.006-0.794-5.55-2.344-0.644-0.644-0.819-0.762-1.050-0.713zM23.781 14.662c1.425 1.125 3.4 1.831 5.144 1.838h0.519l-0.019 4.262c-0.025 4.137-0.031 4.281-0.156 4.744-0.313 1.119-0.981 2.063-1.881 2.675-0.325 0.219-4.619 2.694-4.675 2.694-0.094 0-4.6-2.625-4.906-2.863-0.512-0.381-1.006-0.994-1.313-1.606-0.475-0.975-0.456-0.744-0.481-5.581l-0.019-4.325h0.506c1.394 0 3.144-0.525 4.387-1.313 0.556-0.356 1.262-0.912 1.613-1.275l0.212-0.225 0.381 0.363c0.206 0.2 0.519 0.475 0.688 0.613z"></path>
<path d="M21.569 17.156c-0.844 0.188-1.369 0.413-2.038 0.863-1.069 0.725-1.869 1.819-2.262 3.087-0.15 0.5-0.169 0.644-0.169 1.581-0.006 0.894 0.012 1.094 0.137 1.519 0.55 1.913 1.994 3.369 3.919 3.956 0.506 0.156 0.663 0.169 1.531 0.175 0.825 0.006 1.038-0.019 1.456-0.137 2.025-0.581 3.475-2.031 4.056-4.056 0.119-0.419 0.144-0.631 0.137-1.456-0.006-0.869-0.019-1.025-0.175-1.531-0.581-1.906-2.038-3.363-3.925-3.913-0.6-0.175-2.069-0.225-2.669-0.087zM23.613 18.163c1.113 0.231 2 0.775 2.719 1.669 0.656 0.819 0.988 1.769 0.994 2.856 0.006 0.831-0.119 1.356-0.494 2.125-0.25 0.5-0.381 0.681-0.856 1.163-0.481 0.475-0.663 0.606-1.163 0.856-0.769 0.375-1.294 0.5-2.125 0.494-3.1-0.012-5.294-2.956-4.425-5.925 0.675-2.281 3.038-3.719 5.35-3.238z"></path>
<path d="M23.694 20.2c-0.031 0.113-0.319 1.063-0.631 2.113-0.319 1.050-0.587 1.919-0.6 1.931-0.019 0.019-0.231-0.169-0.481-0.419l-0.456-0.45-0.712 0.725 0.863 0.856c1.35 1.337 1.256 1.419 2.262-1.956 0.419-1.394 0.769-2.575 0.788-2.631 0.019-0.075-0.075-0.131-0.438-0.231-0.256-0.075-0.481-0.137-0.494-0.137-0.019 0-0.063 0.094-0.1 0.2z"></path>
<path d="M3.625 14.969v0.531h10.313v-1.063h-10.313v0.531z"></path>
<path d="M3.625 17.031v0.531h10.313v-1.063h-10.313v0.531z"></path>
<path d="M3.625 19.094v0.531h10.313v-1.063h-10.313v0.531z"></path>
<path d="M3.625 25.281v0.531h10.313v-1.063h-10.313v0.531z"></path>
<path d="M3.625 27.344v0.531h10.313v-1.063h-10.313v0.531z"></path>
<path d="M3.625 29.406v0.531h10.313v-1.063h-10.313v0.531z"></path>
</symbol>
<symbol id="delivery" viewBox="0 0 32 32">
<path d="M17.575 0.206c-0.288 0.306-0.225 0.419 0.894 1.544 0.569 0.569 1.031 1.056 1.031 1.081s-3.525 0.044-7.831 0.044h-7.838l-0.119 0.131c-0.112 0.125-0.119 0.281-0.119 4.025s0.006 3.9 0.119 4.025c0.181 0.2 0.55 0.181 0.719-0.031 0.131-0.162 0.131-0.219 0.131-3.688v-3.525h14.963l-1.044 1.056c-0.913 0.919-1.044 1.075-1.044 1.25 0 0.25 0.244 0.506 0.481 0.506 0.144 0 0.444-0.269 1.719-1.55 1.431-1.425 1.55-1.563 1.55-1.763s-0.119-0.337-1.519-1.731c-1.406-1.406-1.538-1.519-1.738-1.519-0.15 0-0.269 0.044-0.356 0.144z"></path>
<path d="M26.006 0.188c-0.25 0.056-0.725 0.244-1.056 0.406-0.494 0.244-0.694 0.394-1.144 0.837-0.606 0.606-0.956 1.169-1.225 1.975-0.144 0.438-0.163 0.606-0.169 1.344-0.006 0.6 0.025 1 0.106 1.375 0.331 1.531 1.244 3.787 2.506 6.181 0.831 1.569 1.731 3.119 1.875 3.206 0.163 0.106 0.45 0.050 0.613-0.125 0.519-0.556 2.7-4.762 3.519-6.806 0.875-2.162 1.131-3.794 0.794-4.987-0.5-1.738-1.856-3.025-3.637-3.438-0.556-0.125-1.6-0.113-2.181 0.031zM28.375 1.212c0.594 0.206 0.962 0.431 1.425 0.875 0.656 0.625 1.012 1.337 1.144 2.269 0.137 1.006-0.256 2.537-1.25 4.844-0.606 1.412-2.394 4.85-2.531 4.869-0.075 0.006-0.775-1.238-1.569-2.787-1.962-3.862-2.575-6.112-2.069-7.619 0.212-0.631 0.413-0.969 0.863-1.45 0.563-0.6 1.3-1.012 2.069-1.15 0.525-0.094 1.425-0.025 1.919 0.15z"></path>
<path d="M26.669 2.125c-0.469 0.081-0.975 0.362-1.375 0.756-0.619 0.619-0.881 1.425-0.744 2.263 0.375 2.175 2.981 2.988 4.512 1.412 0.969-1 0.988-2.575 0.056-3.587-0.294-0.319-0.731-0.613-1.094-0.744-0.344-0.119-0.988-0.169-1.356-0.1zM27.844 3.212c0.35 0.163 0.744 0.563 0.887 0.906 0.056 0.125 0.094 0.4 0.094 0.619 0.006 0.756-0.488 1.394-1.244 1.612-1.044 0.306-2.081-0.487-2.087-1.594-0.006-1.225 1.256-2.056 2.35-1.544z"></path>
<path d="M9.344 9.85c-1.063 0.569-3.537 1.881-5.5 2.912s-3.619 1.925-3.688 1.994c-0.125 0.119-0.125 0.219-0.144 5.056l-0.013 4.925 0.138 0.156c0.081 0.087 2.606 1.706 5.619 3.6 3.788 2.381 5.531 3.444 5.65 3.444 0.194 0 10.975-5.694 11.206-5.919l0.137-0.137v-5.369c0-5.025-0.006-5.381-0.106-5.5-0.063-0.075-2.5-1.438-5.425-3.031-5.544-3.025-5.806-3.169-5.887-3.169-0.025 0-0.919 0.469-1.988 1.037zM16.063 12.45c2.525 1.381 4.725 2.581 4.887 2.675l0.3 0.162-1.344 0.731c-0.738 0.4-1.375 0.731-1.413 0.731-0.087 0-9.863-5.331-9.869-5.381 0-0.075 2.662-1.488 2.75-1.456 0.050 0.019 2.162 1.162 4.688 2.537zM12.844 14.781l5.15 2.813 0.006 1.538v1.538l-0.825 0.444-0.831 0.444-0.031-1.525c-0.031-1.425-0.038-1.538-0.156-1.65-0.069-0.063-2.412-1.344-5.206-2.838l-5.088-2.719 0.275-0.156c0.85-0.488 1.344-0.731 1.438-0.719 0.063 0.012 2.431 1.281 5.269 2.831zM9.825 16.075c2.744 1.481 4.981 2.7 4.969 2.706-0.1 0.081-3.419 1.844-3.463 1.844-0.050 0-9.738-5.456-9.813-5.525-0.019-0.019 3.2-1.719 3.256-1.725 0.031 0 2.306 1.213 5.050 2.7zM6.056 18.781l4.756 2.688v9.1l-0.325-0.212c-0.181-0.113-2.394-1.5-4.906-3.075l-4.581-2.875v-8.475l0.15 0.081c0.075 0.044 2.288 1.288 4.906 2.769zM21.813 20.712c0 3.594-0.019 4.6-0.075 4.65-0.044 0.038-2.119 1.15-4.613 2.481s-4.706 2.512-4.919 2.631l-0.394 0.219v-9.162l1.738-0.956c0.956-0.519 1.762-0.95 1.781-0.95 0.025 0 0.044 0.669 0.044 1.488 0 1.413 0.006 1.494 0.125 1.625 0.081 0.081 0.206 0.137 0.319 0.137 0.213 0 2.65-1.294 2.963-1.575l0.188-0.163 0.019-1.775 0.019-1.769 1.325-0.731c0.731-0.406 1.363-0.738 1.406-0.738 0.056 0 0.075 0.956 0.075 4.587z"></path>
<path d="M2.438 19.813c-0.194 0.194-0.225 0.425-0.081 0.613 0.188 0.25 6.494 3.906 6.75 3.906 0.344 0.006 0.569-0.3 0.45-0.625-0.075-0.219 0.275 0-3.494-2.188-2.081-1.206-3.212-1.831-3.325-1.831-0.094 0-0.231 0.056-0.3 0.125z"></path>
<path d="M2.4 22.206c-0.2 0.175-0.225 0.5-0.044 0.675 0.063 0.056 1.556 0.944 3.319 1.969 2.306 1.331 3.269 1.856 3.406 1.856 0.125 0 0.238-0.050 0.338-0.169 0.181-0.212 0.181-0.363 0.006-0.563-0.119-0.125-5.7-3.444-6.406-3.813-0.269-0.137-0.419-0.125-0.619 0.044z"></path>
<path d="M28.469 16.938c-0.069 0.025-0.794 0.725-1.606 1.544-1.288 1.288-1.488 1.519-1.488 1.681 0 0.194 0.2 0.438 0.375 0.462 0.262 0.038 0.413-0.075 1.387-1.044l1.050-1.044v11.588h-4.181c-2.794 0-4.238 0.025-4.369 0.069-0.375 0.131-0.419 0.675-0.075 0.85 0.119 0.063 1.175 0.081 4.694 0.081 4.5 0 4.544 0 4.706-0.131l0.163-0.125v-12.338l1.019 1.012c0.556 0.556 1.081 1.038 1.169 1.069 0.306 0.113 0.619-0.113 0.625-0.456 0-0.156-0.212-0.394-1.512-1.7-0.95-0.944-1.575-1.525-1.675-1.544-0.087-0.019-0.212-0.006-0.281 0.025z"></path>
</symbol>
<symbol id="about-us" viewBox="0 0 32 32">
<path d="M14.969 5.787c-1.275 0.2-2.419 1.019-3 2.156-0.287 0.563-0.406 1.056-0.45 1.894s0.031 1.231 0.294 1.506c0.15 0.162 0.188 0.269 0.244 0.756 0.119 0.988 0.431 1.675 1.075 2.369l0.369 0.394v0.469c0 0.356-0.025 0.5-0.106 0.6-0.063 0.069-0.756 0.412-1.55 0.763-1.644 0.725-2.025 0.956-2.35 1.431-0.469 0.681-0.456 0.581-0.481 4.25-0.012 2.206 0 3.356 0.044 3.506 0.119 0.387 0.631 0.469 0.813 0.125 0.044-0.081 0.069-1.194 0.069-3.344 0-1.775 0.025-3.225 0.050-3.225 0.075 0 1.294 1.256 1.394 1.438 0.069 0.125 0.094 0.675 0.119 2.613l0.031 2.462 0.181 0.156c0.194 0.169 0.412 0.156 0.619-0.025 0.1-0.094 0.106-0.3 0.106-2.587 0-3.137 0.081-2.85-1.144-4.1-0.869-0.887-0.881-0.9-0.756-1.019 0.113-0.119 2.856-1.375 2.994-1.375 0.031 0 0.494 0.431 1.012 0.95l0.95 0.956 0.019 3.519 0.019 3.525 0.175 0.15c0.094 0.081 0.231 0.15 0.294 0.15s0.2-0.069 0.294-0.15l0.175-0.15 0.019-3.525 0.019-3.519 0.95-0.956c0.519-0.519 0.981-0.95 1.012-0.95 0.137 0 2.881 1.256 2.994 1.375 0.125 0.119 0.113 0.131-0.756 1.019-1.225 1.25-1.144 0.962-1.144 4.1 0 2.288 0.006 2.494 0.113 2.587 0.2 0.181 0.419 0.194 0.613 0.025l0.181-0.156 0.031-2.462c0.025-1.938 0.050-2.488 0.119-2.613 0.1-0.181 1.319-1.438 1.394-1.438 0.025 0 0.050 1.45 0.050 3.225 0 2.15 0.025 3.262 0.069 3.344 0.181 0.344 0.694 0.262 0.813-0.125 0.044-0.15 0.056-1.3 0.044-3.506-0.025-3.669-0.012-3.569-0.481-4.25-0.325-0.475-0.706-0.706-2.35-1.431-0.788-0.35-1.488-0.694-1.544-0.762-0.087-0.1-0.113-0.244-0.113-0.6v-0.469l0.394-0.425c0.438-0.475 0.8-1.125 0.95-1.719 0.056-0.206 0.113-0.756 0.137-1.219 0.031-0.725 0.056-0.856 0.156-0.925 0.225-0.162 0.325-0.456 0.319-0.95-0.025-1.431-0.887-2.787-2.181-3.431-0.681-0.338-0.975-0.394-2.087-0.412-0.569-0.013-1.113-0.006-1.219 0.006zM17.462 6.869c1.175 0.419 1.906 1.369 2.069 2.669l0.044 0.325-0.55 0.075c-0.656 0.094-1.969 0.050-2.438-0.081-0.519-0.144-1.094-0.431-1.525-0.756-0.256-0.194-0.469-0.306-0.575-0.306-0.25 0-0.425 0.181-0.425 0.444 0 0.188 0.050 0.269 0.319 0.519 0.375 0.344 1.269 0.806 1.931 1 0.375 0.106 0.688 0.137 1.594 0.162l1.125 0.025-0.006 0.65c-0.019 1-0.275 1.656-0.9 2.281-0.606 0.606-1.262 0.875-2.125 0.875s-1.519-0.269-2.125-0.875c-0.525-0.525-0.819-1.156-0.906-1.956-0.037-0.356-0.037-0.356 0.162-0.469 0.106-0.056 0.331-0.213 0.5-0.344 0.262-0.2 0.306-0.262 0.306-0.45 0-0.269-0.181-0.469-0.419-0.469-0.1 0-0.338 0.106-0.544 0.25-0.563 0.381-0.563 0.381-0.519-0.488 0.019-0.4 0.081-0.887 0.137-1.075 0.281-0.931 1.075-1.731 2-2.019 0.488-0.156 0.563-0.162 1.563-0.138 0.762 0.013 1.006 0.037 1.306 0.15zM14.95 15.563c0.306 0.088 0.644 0.125 1.050 0.125s0.744-0.037 1.050-0.125c0.244-0.069 0.462-0.125 0.481-0.125s0.031 0.106 0.031 0.244c0 0.131 0.038 0.338 0.087 0.456l0.094 0.212-1.744 1.744-1.744-1.744 0.094-0.212c0.050-0.119 0.088-0.325 0.088-0.456 0-0.137 0.012-0.244 0.031-0.244s0.238 0.056 0.481 0.125z"></path>
<path d="M4.581 8.313c-0.594 0.125-1.112 0.544-1.388 1.125-0.131 0.281-0.163 0.444-0.163 0.875l-0.006 0.531-0.469 0.469c-0.813 0.819-1.056 1.5-1.056 2.938 0 1.431 0.244 2.119 1.044 2.931l0.456 0.456v0.575c0 0.419-0.025 0.613-0.1 0.712-0.050 0.075-0.538 0.363-1.075 0.637-1.094 0.55-1.375 0.781-1.631 1.313l-0.163 0.344-0.019 2.281c-0.013 1.256 0 2.344 0.019 2.419 0.019 0.081 0.119 0.188 0.225 0.244 0.162 0.081 0.225 0.081 0.375 0.019 0.106-0.038 0.213-0.125 0.244-0.188 0.037-0.063 0.063-0.944 0.063-2.1v-1.981l0.444 0.431c0.244 0.244 0.481 0.525 0.531 0.637 0.069 0.15 0.087 0.531 0.087 1.512 0 0.844 0.025 1.369 0.069 1.469 0.144 0.319 0.644 0.344 0.8 0.044 0.044-0.075 0.069-0.656 0.069-1.531 0-1.85-0.006-1.863-0.956-2.837-0.419-0.419-0.669-0.725-0.631-0.756 0.031-0.025 0.5-0.275 1.038-0.55l0.981-0.5 0.563 0.569 0.569 0.569v2.419c0 1.663 0.025 2.469 0.069 2.575 0.144 0.319 0.644 0.344 0.8 0.044 0.044-0.081 0.069-0.969 0.069-2.581v-2.456l0.569-0.569 0.569-0.575 0.463 0.219c0.419 0.2 0.469 0.212 0.631 0.131 0.094-0.044 0.2-0.156 0.231-0.244 0.1-0.294 0.006-0.456-0.412-0.688-0.213-0.119-0.425-0.281-0.469-0.369s-0.081-0.381-0.081-0.681v-0.519l0.431-0.425c0.313-0.313 0.506-0.575 0.681-0.931 0.35-0.7 0.406-1.019 0.375-2.281-0.025-1.006-0.037-1.094-0.206-1.525-0.219-0.544-0.688-1.188-1.063-1.456l-0.269-0.194 0.031-0.456c0.044-0.563-0.081-0.969-0.419-1.4-0.419-0.531-1.25-0.831-1.919-0.694zM5.531 9.375c0.244 0.15 0.469 0.55 0.469 0.831v0.219l-0.256-0.056c-0.35-0.081-0.875-0.094-1.381-0.031l-0.425 0.050v-0.169c0-0.375 0.356-0.85 0.725-0.969 0.244-0.075 0.631-0.019 0.869 0.125zM5.688 11.325c0.306 0.094 0.75 0.331 0.95 0.506 0.494 0.456 0.862 1.225 0.862 1.825 0 0.3-0.013 0.306-0.644 0.381-0.75 0.088-1.675-0.262-2.313-0.881-0.463-0.45-0.644-0.463-1.112-0.063-0.319 0.269-0.925 0.619-0.981 0.569-0.013-0.019 0.006-0.181 0.050-0.375 0.306-1.481 1.775-2.381 3.188-1.963zM4.313 14.194c0.662 0.494 1.263 0.719 2.094 0.781 0.275 0.019 0.625 0.006 0.781-0.025 0.15-0.037 0.287-0.056 0.306-0.037 0.056 0.050-0.131 0.719-0.281 1.006-0.444 0.837-1.287 1.337-2.244 1.337-1.306-0.006-2.331-0.938-2.5-2.262l-0.044-0.344 0.337-0.106c0.188-0.056 0.519-0.219 0.738-0.35 0.225-0.137 0.419-0.25 0.438-0.256 0.019 0 0.188 0.113 0.375 0.256zM4.594 18.181c0.381 0.038 1.019 0 1.256-0.081 0.125-0.038 0.138-0.012 0.169 0.444l0.031 0.488-1.050 1.063-1.094-1.094 0.019-0.469c0.019-0.456 0.031-0.475 0.156-0.431 0.075 0.025 0.306 0.063 0.513 0.081z"></path>
<path d="M25.094 9.313c-1.194 0.2-2.144 1.050-2.431 2.162-0.113 0.438-0.137 1.838-0.038 2.025 0.031 0.063 0.144 0.144 0.25 0.175 0.188 0.069 0.188 0.075 0.188 0.525 0.006 0.806 0.238 1.438 0.744 2l0.269 0.3-0.025 0.438c-0.019 0.413-0.031 0.438-0.288 0.675-0.313 0.288-0.344 0.5-0.106 0.731 0.175 0.181 0.3 0.194 0.556 0.063l0.188-0.1 1.163 1.163v3.206c0 2.144 0.025 3.25 0.069 3.331 0.156 0.3 0.656 0.275 0.8-0.044 0.050-0.113 0.069-1.1 0.069-3.325v-3.169l1.131-1.131 1.363 0.688 1.369 0.688-0.475 0.506c-0.256 0.275-0.538 0.65-0.631 0.844l-0.163 0.344-0.019 2.231c-0.012 1.538 0.006 2.275 0.050 2.363 0.163 0.306 0.656 0.281 0.806-0.038 0.044-0.106 0.069-0.819 0.069-2.219 0-1.625 0.019-2.1 0.087-2.262 0.050-0.113 0.288-0.394 0.531-0.637l0.444-0.431v2.731c0 1.637 0.025 2.788 0.063 2.85 0.031 0.063 0.137 0.15 0.244 0.188 0.15 0.063 0.212 0.063 0.375-0.019 0.106-0.056 0.206-0.163 0.225-0.244 0.019-0.075 0.031-1.406 0.019-2.95l-0.019-2.813-0.169-0.313c-0.3-0.569-0.538-0.744-2.125-1.538-0.85-0.425-1.519-0.8-1.575-0.881-0.069-0.094-0.1-0.275-0.1-0.538 0-0.375 0.012-0.413 0.25-0.688 0.475-0.537 0.75-1.306 0.75-2.106 0-0.363 0.012-0.406 0.119-0.406 0.069 0 0.181-0.075 0.256-0.175 0.131-0.162 0.137-0.213 0.106-1.012-0.019-0.5-0.075-0.969-0.131-1.15-0.281-0.875-1.006-1.613-1.9-1.919-0.406-0.144-1.813-0.213-2.356-0.119zM27.406 10.431c0.7 0.35 1.081 0.95 1.137 1.825l0.038 0.494h-0.188c-0.65 0-1.988-0.35-2.825-0.744-0.594-0.281-0.663-0.275-1.081 0.081-0.131 0.119-0.413 0.3-0.613 0.406l-0.375 0.2v-0.406c0-1 0.669-1.831 1.637-2.037 0.15-0.031 0.631-0.050 1.069-0.037 0.75 0.019 0.825 0.037 1.2 0.219zM26.781 13.425c0.313 0.075 0.719 0.156 0.906 0.181l0.344 0.050-0.006 0.537c0 0.431-0.031 0.594-0.163 0.881-0.331 0.719-1.050 1.188-1.831 1.181-0.644-0.006-1.156-0.238-1.556-0.706-0.344-0.4-0.475-0.819-0.475-1.519v-0.581l0.206-0.069c0.106-0.044 0.35-0.175 0.538-0.306l0.337-0.238 0.569 0.225c0.313 0.125 0.825 0.287 1.131 0.363zM25.688 17.181c0.337 0.038 0.781 0.006 1.163-0.087 0.188-0.044 0.2-0.038 0.225 0.181 0.025 0.206-0.006 0.256-0.525 0.769l-0.55 0.55-0.538-0.544c-0.531-0.525-0.538-0.544-0.5-0.769 0.044-0.212 0.056-0.225 0.212-0.188 0.094 0.025 0.325 0.063 0.512 0.087z"></path>
</symbol>
<symbol id="phone" viewBox="0 0 32 32">
<path d="M22 20c-2 2-2 4-4 4s-4-2-6-4-4-4-4-6 2-2 4-4-4-8-6-8-6 6-6 6c0 4 4.109 12.109 8 16s12 8 16 8c0 0 6-4 6-6s-6-8-8-6z"></path>
</symbol>
<symbol id="facebook" viewBox="0 0 32 32">
<path d="M29 0h-26c-1.65 0-3 1.35-3 3v26c0 1.65 1.35 3 3 3h13v-14h-4v-4h4v-2c0-3.306 2.694-6 6-6h4v4h-4c-1.1 0-2 0.9-2 2v2h6l-1 4h-5v14h9c1.65 0 3-1.35 3-3v-26c0-1.65-1.35-3-3-3z"></path>
</symbol>
<symbol id="instagram" viewBox="0 0 32 32">
<path d="M16 2.881c4.275 0 4.781 0.019 6.462 0.094 1.563 0.069 2.406 0.331 2.969 0.55 0.744 0.288 1.281 0.638 1.837 1.194 0.563 0.563 0.906 1.094 1.2 1.838 0.219 0.563 0.481 1.412 0.55 2.969 0.075 1.688 0.094 2.194 0.094 6.463s-0.019 4.781-0.094 6.463c-0.069 1.563-0.331 2.406-0.55 2.969-0.288 0.744-0.637 1.281-1.194 1.837-0.563 0.563-1.094 0.906-1.837 1.2-0.563 0.219-1.413 0.481-2.969 0.55-1.688 0.075-2.194 0.094-6.463 0.094s-4.781-0.019-6.463-0.094c-1.563-0.069-2.406-0.331-2.969-0.55-0.744-0.288-1.281-0.637-1.838-1.194-0.563-0.563-0.906-1.094-1.2-1.837-0.219-0.563-0.481-1.413-0.55-2.969-0.075-1.688-0.094-2.194-0.094-6.463s0.019-4.781 0.094-6.463c0.069-1.563 0.331-2.406 0.55-2.969 0.288-0.744 0.638-1.281 1.194-1.838 0.563-0.563 1.094-0.906 1.838-1.2 0.563-0.219 1.412-0.481 2.969-0.55 1.681-0.075 2.188-0.094 6.463-0.094zM16 0c-4.344 0-4.887 0.019-6.594 0.094-1.7 0.075-2.869 0.35-3.881 0.744-1.056 0.412-1.95 0.956-2.837 1.85-0.894 0.888-1.438 1.781-1.85 2.831-0.394 1.019-0.669 2.181-0.744 3.881-0.075 1.713-0.094 2.256-0.094 6.6s0.019 4.887 0.094 6.594c0.075 1.7 0.35 2.869 0.744 3.881 0.413 1.056 0.956 1.95 1.85 2.837 0.887 0.887 1.781 1.438 2.831 1.844 1.019 0.394 2.181 0.669 3.881 0.744 1.706 0.075 2.25 0.094 6.594 0.094s4.888-0.019 6.594-0.094c1.7-0.075 2.869-0.35 3.881-0.744 1.050-0.406 1.944-0.956 2.831-1.844s1.438-1.781 1.844-2.831c0.394-1.019 0.669-2.181 0.744-3.881 0.075-1.706 0.094-2.25 0.094-6.594s-0.019-4.887-0.094-6.594c-0.075-1.7-0.35-2.869-0.744-3.881-0.394-1.063-0.938-1.956-1.831-2.844-0.887-0.887-1.781-1.438-2.831-1.844-1.019-0.394-2.181-0.669-3.881-0.744-1.712-0.081-2.256-0.1-6.6-0.1v0z"></path>
<path d="M16 7.781c-4.537 0-8.219 3.681-8.219 8.219s3.681 8.219 8.219 8.219 8.219-3.681 8.219-8.219c0-4.537-3.681-8.219-8.219-8.219zM16 21.331c-2.944 0-5.331-2.387-5.331-5.331s2.387-5.331 5.331-5.331c2.944 0 5.331 2.387 5.331 5.331s-2.387 5.331-5.331 5.331z"></path>
<path d="M26.462 7.456c0 1.060-0.859 1.919-1.919 1.919s-1.919-0.859-1.919-1.919c0-1.060 0.859-1.919 1.919-1.919s1.919 0.859 1.919 1.919z"></path>
</symbol>
<symbol id="whatsapp" viewBox="0 0 32 32">
<path d="M27.281 4.65c-2.994-3-6.975-4.65-11.219-4.65-8.738 0-15.85 7.112-15.85 15.856 0 2.794 0.731 5.525 2.119 7.925l-2.25 8.219 8.406-2.206c2.319 1.262 4.925 1.931 7.575 1.931h0.006c0 0 0 0 0 0 8.738 0 15.856-7.113 15.856-15.856 0-4.238-1.65-8.219-4.644-11.219zM16.069 29.050v0c-2.369 0-4.688-0.637-6.713-1.837l-0.481-0.288-4.987 1.306 1.331-4.863-0.313-0.5c-1.325-2.094-2.019-4.519-2.019-7.012 0-7.269 5.912-13.181 13.188-13.181 3.519 0 6.831 1.375 9.319 3.862 2.488 2.494 3.856 5.8 3.856 9.325-0.006 7.275-5.919 13.188-13.181 13.188zM23.294 19.175c-0.394-0.2-2.344-1.156-2.706-1.288s-0.625-0.2-0.894 0.2c-0.262 0.394-1.025 1.288-1.256 1.556-0.231 0.262-0.462 0.3-0.856 0.1s-1.675-0.619-3.188-1.969c-1.175-1.050-1.975-2.35-2.206-2.744s-0.025-0.613 0.175-0.806c0.181-0.175 0.394-0.463 0.594-0.694s0.262-0.394 0.394-0.662c0.131-0.262 0.069-0.494-0.031-0.694s-0.894-2.15-1.219-2.944c-0.319-0.775-0.65-0.669-0.894-0.681-0.231-0.012-0.494-0.012-0.756-0.012s-0.694 0.1-1.056 0.494c-0.363 0.394-1.387 1.356-1.387 3.306s1.419 3.831 1.619 4.1c0.2 0.262 2.794 4.269 6.769 5.981 0.944 0.406 1.681 0.65 2.256 0.837 0.95 0.3 1.813 0.256 2.494 0.156 0.762-0.113 2.344-0.956 2.675-1.881s0.331-1.719 0.231-1.881c-0.094-0.175-0.356-0.275-0.756-0.475z"></path>
</symbol>
</defs>
</svg>
